<?xml version="1.0" standalone="no"?>
<!DOCTYPE svg PUBLIC "-//W3C//DTD SVG 20010904//EN"
 "http://www.w3.org/TR/2001/REC-SVG-20010904/DTD/svg10.dtd">
<svg version="1.0" xmlns="http://www.w3.org/2000/svg"
 width="250.000000pt" height="206.000000pt" viewBox="0 0 250.000000 206.000000"
 preserveAspectRatio="xMidYMid meet">

<g transform="translate(0.000000,206.000000) scale(0.100000,-0.100000)"
fill="#000000" stroke="none">
<path d="M888 1975 c-26 -19 -52 -44 -58 -55 -10 -19 -8 -20 40 -20 47 0 50 2
64 33 37 90 29 97 -46 42z"/>
<path d="M980 1968 c-30 -66 -28 -68 45 -68 73 0 75 2 45 68 -15 34 -24 42
-45 42 -21 0 -30 -8 -45 -42z"/>
<path d="M1090 2008 c0 -2 9 -25 19 -53 l19 -50 52 -3 c49 -3 51 -2 40 17 -19
36 -130 111 -130 89z"/>
<path d="M794 1970 c-32 -16 -72 -41 -89 -54 l-30 -25 30 0 c49 1 68 12 114
62 24 26 41 47 39 47 -3 0 -31 -13 -64 -30z"/>
<path d="M1231 1952 c36 -41 52 -51 87 -57 24 -3 46 -4 49 -1 7 6 -93 71 -141
91 l-39 17 44 -50z"/>
<path d="M654 1934 c-27 -14 -56 -32 -64 -40 -25 -24 49 2 79 28 14 13 30 26
36 30 18 15 -2 8 -51 -18z"/>
<path d="M1381 1925 c37 -29 79 -46 79 -31 0 6 -105 66 -115 66 -4 0 12 -16
36 -35z"/>
<path d="M673 1863 c-24 -3 -46 -19 -88 -65 -30 -34 -53 -63 -50 -66 2 -2 37
-1 78 2 l74 7 29 57 c16 31 30 60 32 65 4 7 -16 7 -75 0z"/>
<path d="M760 1818 c-42 -75 -41 -78 33 -77 91 1 100 6 113 72 l11 57 -63 0
-64 0 -30 -52z"/>
<path d="M945 1858 c-2 -7 -8 -34 -13 -60 l-10 -48 103 0 102 0 -8 48 c-14 74
-11 72 -94 72 -52 0 -77 -4 -80 -12z"/>
<path d="M1145 1813 c13 -66 20 -70 123 -72 l64 -1 -34 63 -35 62 -65 3 -65 3
12 -58z"/>
<path d="M1330 1809 c18 -35 33 -65 34 -65 0 -1 37 -5 80 -9 l80 -8 -32 39
c-77 94 -74 92 -135 99 l-59 7 32 -63z"/>
<path d="M547 1853 c-18 -3 -53 -28 -94 -69 -36 -35 -64 -66 -62 -67 2 -2 25
-2 51 1 50 4 44 -2 137 124 7 10 10 17 5 17 -5 -1 -22 -4 -37 -6z"/>
<path d="M1466 1849 c6 -8 28 -36 49 -64 22 -27 41 -52 42 -54 2 -3 25 -7 52
-11 44 -6 49 -4 41 11 -13 23 -119 119 -133 119 -7 0 -23 3 -37 7 -21 5 -23 4
-14 -8z"/>
<path d="M414 1811 c-21 -16 -57 -47 -79 -70 -32 -34 -36 -41 -20 -41 16 1
158 140 142 140 -2 0 -22 -13 -43 -29z"/>
<path d="M1646 1778 c70 -75 73 -78 99 -78 16 0 12 7 -20 41 -45 46 -113 99
-128 99 -6 0 16 -28 49 -62z"/>
<path d="M746 1711 l-40 -6 -29 -88 c-16 -48 -28 -89 -26 -91 2 -2 52 -1 110
2 l107 5 6 71 c4 39 10 81 13 94 5 21 2 22 -48 21 -30 -1 -72 -5 -93 -8z"/>
<path d="M916 1697 c-3 -13 -9 -56 -12 -95 l-7 -72 130 0 129 0 -8 73 c-14
128 -3 117 -122 117 -100 0 -104 -1 -110 -23z"/>
<path d="M1163 1698 c4 -13 10 -56 13 -95 l7 -71 106 -4 c58 -3 108 -3 110 -2
6 5 -49 173 -59 179 -5 3 -49 9 -96 12 l-87 6 6 -25z"/>
<path d="M550 1701 l-44 -6 -45 -88 c-24 -48 -42 -90 -39 -92 2 -3 47 -2 99 2
l95 6 22 76 c13 42 25 84 29 94 4 14 -1 17 -33 15 -22 0 -59 -4 -84 -7z"/>
<path d="M1380 1709 c0 -2 13 -44 29 -94 l28 -90 93 -7 c52 -4 96 -6 98 -3 6
5 -60 143 -79 167 -10 11 -37 19 -91 23 -43 4 -78 6 -78 4z"/>
<path d="M382 1683 c-12 -2 -33 -19 -46 -36 -30 -40 -90 -147 -85 -151 9 -7
134 13 137 22 2 6 21 47 42 91 l39 81 -32 -1 c-18 -1 -42 -4 -55 -6z"/>
<path d="M1620 1612 c22 -45 40 -85 40 -91 0 -5 21 -12 48 -16 26 -3 57 -7 70
-9 12 -2 22 0 22 3 0 13 -89 157 -104 171 -9 7 -39 15 -67 18 l-50 5 41 -81z"/>
<path d="M272 1655 c-22 -10 -47 -38 -82 -92 -28 -43 -50 -81 -50 -84 0 -7 69
6 74 13 7 9 96 178 94 178 -2 -1 -18 -7 -36 -15z"/>
<path d="M1770 1618 c17 -29 39 -69 48 -88 9 -19 17 -37 18 -38 4 -6 78 -21
82 -17 2 2 -17 36 -41 77 -45 74 -73 101 -115 113 -23 7 -23 6 8 -47z"/>
<path d="M642 1483 c-10 -20 -32 -137 -32 -171 0 -21 4 -22 119 -22 l118 0 7
61 c3 34 6 82 6 105 l0 44 -105 0 c-89 0 -106 -3 -113 -17z"/>
<path d="M886 1423 c-3 -42 -6 -87 -6 -100 l0 -23 145 0 145 0 0 33 c0 17 -3
62 -7 100 l-6 67 -132 0 -132 0 -7 -77z"/>
<path d="M1190 1463 c0 -21 3 -68 7 -105 l6 -68 120 0 120 0 -7 55 c-3 30 -11
77 -17 105 l-11 50 -109 0 -109 0 0 -37z"/>
<path d="M441 1481 c-31 -5 -36 -12 -52 -58 -10 -29 -21 -73 -25 -98 l-6 -45
43 0 c24 0 74 3 110 6 l65 7 12 83 c7 46 15 91 18 99 5 13 -5 15 -62 14 -38
-1 -84 -4 -103 -8z"/>
<path d="M1443 1476 c4 -9 12 -54 19 -100 l12 -84 108 -7 c60 -4 111 -6 113
-4 3 4 -43 191 -50 197 -2 2 -50 6 -106 9 -93 6 -102 5 -96 -11z"/>
<path d="M325 1473 c-97 -11 -91 -7 -119 -91 -39 -116 -38 -118 36 -114 35 2
67 8 72 12 5 5 20 51 33 102 27 107 25 98 16 97 -5 -1 -21 -4 -38 -6z"/>
<path d="M1680 1478 c0 -2 11 -45 24 -97 14 -57 30 -97 40 -103 9 -5 43 -8 75
-6 l59 3 -29 92 c-30 92 -30 92 -67 98 -88 14 -102 16 -102 13z"/>
<path d="M140 1437 c-19 -9 -32 -32 -53 -96 -15 -46 -26 -86 -23 -88 3 -3 21
-2 40 1 31 6 37 12 46 49 6 23 19 66 29 95 17 47 17 52 2 52 -9 0 -27 -6 -41
-13z"/>
<path d="M1860 1443 c0 -5 7 -29 15 -54 7 -24 19 -63 25 -86 9 -38 13 -42 51
-48 22 -4 42 -5 45 -2 8 7 -45 164 -60 176 -18 15 -76 26 -76 14z"/>
<path d="M693 1263 c-33 -4 -33 -4 -13 -25 26 -28 34 -71 20 -113 -18 -53 -3
-65 81 -65 l69 0 0 105 0 105 -62 -2 c-35 0 -78 -3 -95 -5z"/>
<path d="M880 1242 c0 -16 -3 -63 -6 -105 l-7 -77 157 0 156 0 0 53 c0 28 -3
76 -6 105 l-7 52 -143 0 -144 0 0 -28z"/>
<path d="M1208 1264 c-5 -4 -8 -52 -8 -106 l0 -98 131 0 132 0 -7 97 c-4 53
-8 98 -9 99 -7 7 -233 15 -239 8z"/>
<path d="M398 1253 c-27 -2 -48 -7 -48 -11 0 -4 13 -15 29 -25 43 -25 67 -82
54 -129 l-10 -38 55 0 55 0 -26 21 c-15 11 -32 37 -38 58 -11 36 -6 56 29 124
4 7 -8 7 -100 0z"/>
<path d="M1480 1228 c0 -18 3 -63 7 -100 l6 -68 115 0 114 0 -6 78 c-4 42 -9
84 -12 93 -5 17 -77 29 -175 29 -49 0 -49 0 -49 -32z"/>
<path d="M238 1243 c-31 -2 -61 -10 -67 -17 -6 -6 -13 -49 -17 -94 l-7 -82 31
0 c30 0 30 1 21 32 -6 21 -5 44 2 65 12 37 62 83 90 83 10 0 19 5 19 10 0 6
-3 9 -7 8 -5 -1 -34 -3 -65 -5z"/>
<path d="M1735 1222 c2 -15 7 -57 10 -94 l7 -68 75 0 76 0 -7 82 c-4 46 -10
86 -14 89 -4 4 -39 9 -79 12 l-72 6 4 -27z"/>
<path d="M530 1215 c-29 -31 -29 -80 -1 -109 11 -11 23 -17 26 -14 11 11 18
148 8 148 -5 0 -20 -11 -33 -25z"/>
<path d="M595 1165 c-4 -42 -5 -79 -2 -82 11 -10 57 27 67 52 15 40 -18 105
-53 105 -3 0 -8 -34 -12 -75z"/>
<path d="M83 1219 c-34 -10 -38 -22 -45 -134 -3 -39 -2 -40 31 -43 18 -2 37 0
41 5 12 12 24 183 14 182 -5 0 -23 -5 -41 -10z"/>
<path d="M1924 1169 c3 -34 6 -73 6 -85 0 -22 4 -24 45 -24 l45 0 0 44 c0 84
-9 105 -49 116 -54 15 -54 15 -47 -51z"/>
<path d="M267 1178 c-28 -22 -36 -60 -21 -96 19 -46 49 -43 58 6 15 92 4 120
-37 90z"/>
<path d="M336 1143 c-11 -82 -9 -95 16 -91 34 5 53 51 38 89 -7 16 -21 34 -30
39 -15 8 -18 3 -24 -37z"/>
<path d="M2345 1095 c-14 -13 -25 -29 -25 -35 0 -6 -48 -10 -135 -10 -113 0
-135 -2 -135 -15 0 -13 22 -15 135 -15 87 0 135 -4 135 -10 0 -6 11 -22 25
-35 34 -35 88 -34 120 1 53 57 16 144 -60 144 -25 0 -44 -8 -60 -25z"/>
<path d="M39 1013 c-2 -20 2 -101 7 -125 4 -22 13 -29 40 -34 19 -3 37 -4 40
-1 3 3 2 42 -2 86 l-7 81 -38 0 c-22 0 -39 -3 -40 -7z"/>
<path d="M150 975 c0 -25 2 -45 4 -45 3 0 21 10 41 21 27 16 45 20 75 15 31
-5 38 -3 34 7 -8 21 -71 47 -114 47 l-40 0 0 -45z"/>
<path d="M489 961 c28 -32 58 -64 67 -72 16 -13 17 -11 11 26 -4 22 -7 55 -7
73 l0 32 -61 0 -61 0 51 -59z"/>
<path d="M593 934 c3 -47 11 -92 18 -100 9 -11 40 -14 126 -14 l114 0 -3 98
-3 97 -129 3 -129 3 6 -87z"/>
<path d="M874 1005 c-4 -9 -3 -54 1 -100 l7 -85 143 0 144 0 6 53 c4 28 5 72
3 97 l-3 45 -148 3 c-126 2 -148 0 -153 -13z"/>
<path d="M1207 1013 c-4 -3 -7 -48 -7 -100 l0 -93 124 0 123 0 7 53 c3 28 6
73 6 100 l0 47 -123 0 c-68 0 -127 -3 -130 -7z"/>
<path d="M1490 988 c0 -18 -3 -63 -7 -100 l-6 -68 111 0 c127 0 117 -9 127
111 l7 76 -53 6 c-30 4 -82 7 -116 7 l-63 0 0 -32z"/>
<path d="M353 998 c-27 -13 -29 -39 -6 -74 9 -14 19 -42 22 -62 l6 -37 90 -6
c50 -3 92 -4 94 -3 5 4 -170 194 -178 193 -3 0 -16 -5 -28 -11z"/>
<path d="M1749 993 c0 -10 -4 -51 -8 -92 l-7 -74 74 6 c41 3 76 7 78 9 2 2 6
41 10 86 l7 82 -77 0 c-65 0 -76 -2 -77 -17z"/>
<path d="M1926 929 c-4 -44 -6 -82 -4 -83 2 -1 22 1 44 6 46 10 54 27 54 114
l0 44 -44 0 -43 0 -7 -81z"/>
<path d="M220 917 c-26 -13 -59 -62 -48 -72 3 -3 38 -9 78 -12 67 -6 73 -5 67
11 -4 10 -7 28 -7 40 0 15 -9 27 -25 34 -32 15 -34 15 -65 -1z"/>
<path d="M2184 844 c-27 -35 -29 -35 -91 -32 -58 3 -73 -3 -73 -28 0 -2 33 -4
74 -4 66 0 75 -2 81 -20 7 -23 54 -50 85 -50 33 0 80 53 80 90 0 45 -38 80
-89 80 -34 0 -44 -5 -67 -36z"/>
<path d="M65 793 c3 -20 16 -61 27 -91 16 -44 27 -57 55 -69 19 -8 37 -12 40
-10 5 6 -46 179 -56 188 -3 4 -21 9 -40 13 l-33 6 7 -37z"/>
<path d="M190 802 c0 -30 88 -43 110 -17 11 13 8 15 -18 15 -16 0 -44 3 -61 6
-19 4 -31 2 -31 -4z"/>
<path d="M360 778 c0 -7 40 -55 88 -106 80 -84 90 -92 125 -92 34 0 37 2 31
24 -3 12 -11 59 -18 102 l-12 79 -107 3 c-82 2 -107 0 -107 -10z"/>
<path d="M610 757 c0 -24 17 -129 26 -159 5 -16 19 -18 115 -18 l109 0 0 39
c0 21 -3 66 -6 100 l-7 61 -118 0 c-118 0 -119 0 -119 -23z"/>
<path d="M880 748 c0 -18 3 -63 7 -100 l6 -68 132 0 132 0 7 61 c3 34 6 79 6
100 l0 39 -145 0 -145 0 0 -32z"/>
<path d="M1197 713 c-4 -38 -7 -83 -7 -100 l0 -33 109 0 c123 0 112 -8 130 94
21 114 28 106 -108 106 l-118 0 -6 -67z"/>
<path d="M1461 684 c-7 -53 -10 -98 -8 -101 3 -2 47 -1 99 4 l93 8 17 52 c10
29 21 71 24 93 l7 40 -110 0 -110 0 -12 -96z"/>
<path d="M1720 762 c0 -10 -8 -51 -19 -90 l-19 -72 32 0 c17 0 48 3 68 6 34 6
39 11 57 58 10 28 22 66 26 84 l7 32 -76 0 c-67 0 -76 -2 -76 -18z"/>
<path d="M1882 704 c-13 -42 -21 -79 -18 -81 3 -3 21 0 41 7 37 12 60 49 79
123 6 26 5 27 -37 27 l-43 0 -22 -76z"/>
<path d="M196 715 c3 -11 12 -39 21 -61 l15 -42 65 -7 c35 -4 66 -5 68 -3 2 2
-4 32 -14 68 l-18 65 -71 0 c-67 0 -71 -1 -66 -20z"/>
<path d="M386 653 c11 -48 24 -63 50 -63 l25 0 -37 45 c-20 25 -38 45 -40 45
-3 0 -1 -12 2 -27z"/>
<path d="M2358 635 c-15 -8 -29 -24 -33 -35 -6 -19 -15 -20 -195 -20 -162 0
-189 -2 -194 -16 -3 -9 -6 -16 -6 -17 0 -1 85 -1 188 1 l189 3 27 -35 c23 -31
33 -36 67 -36 83 0 118 83 60 141 -32 32 -62 36 -103 14z"/>
<path d="M140 593 c0 -10 62 -113 90 -151 14 -18 70 -42 70 -30 0 3 -20 40
-45 83 -24 43 -46 82 -47 86 -5 10 -68 22 -68 12z"/>
<path d="M1865 590 c-28 -7 -27 -8 13 -9 23 0 42 4 42 9 0 11 -11 11 -55 0z"/>
<path d="M250 575 c0 -12 50 -102 78 -141 26 -36 36 -42 79 -47 26 -3 49 -4
50 -3 3 3 -72 175 -78 180 -8 6 -129 17 -129 11z"/>
<path d="M426 538 c7 -24 56 -122 73 -148 7 -10 35 -17 91 -20 68 -4 79 -3 74
10 -3 8 -15 48 -27 88 l-21 72 -52 0 c-29 0 -56 5 -59 10 -3 6 -24 10 -46 10
-37 0 -40 -2 -33 -22z"/>
<path d="M656 513 c4 -16 16 -55 28 -88 l21 -60 93 -3 c86 -3 93 -1 88 15 -3
10 -8 51 -12 91 l-7 72 -108 0 -109 0 6 -27z"/>
<path d="M904 458 c4 -46 12 -87 17 -93 13 -13 195 -13 207 0 6 6 14 47 19 93
l9 82 -129 0 -130 0 7 -82z"/>
<path d="M1174 450 l-9 -91 90 3 90 3 21 60 c12 33 24 72 28 88 l6 27 -108 0
-108 0 -10 -90z"/>
<path d="M1408 453 c-15 -48 -26 -88 -25 -89 1 0 38 2 82 5 l80 6 43 83 43 82
-98 0 -98 0 -27 -87z"/>
<path d="M1623 459 l-39 -80 50 6 c28 4 55 10 59 12 12 7 87 124 87 135 0 4
-27 8 -59 8 l-59 0 -39 -81z"/>
<path d="M1788 483 c-43 -76 -43 -73 -20 -73 28 0 72 40 100 89 l23 41 -34 0
c-32 0 -38 -5 -69 -57z"/>
<path d="M290 371 c0 -14 133 -131 149 -131 15 0 -94 120 -119 132 -22 10 -30
9 -30 -1z"/>
<path d="M1735 372 c-11 -4 -41 -29 -65 -57 -25 -27 -51 -54 -57 -58 -7 -4
-13 -12 -13 -18 0 -16 52 16 113 71 69 62 75 79 22 62z"/>
<path d="M390 353 c0 -5 29 -38 64 -71 51 -49 71 -62 96 -62 l32 0 -22 28
c-11 15 -32 44 -47 65 -14 20 -33 37 -43 37 -10 0 -32 3 -49 6 -18 4 -31 2
-31 -3z"/>
<path d="M1598 351 c-30 -5 -44 -17 -82 -68 l-46 -63 31 0 c25 0 45 14 103 70
74 72 74 74 -6 61z"/>
<path d="M530 340 c0 -3 23 -33 51 -68 l51 -62 54 0 c30 0 54 2 54 5 0 3 -13
32 -30 64 l-29 59 -76 4 c-41 2 -75 1 -75 -2z"/>
<path d="M1340 280 c-16 -33 -30 -62 -30 -65 0 -3 24 -5 54 -5 52 0 55 1 93
48 74 91 75 82 -11 82 l-76 0 -30 -60z"/>
<path d="M752 268 l33 -63 64 -3 63 -3 -6 48 c-13 87 -8 83 -102 83 l-85 0 33
-62z"/>
<path d="M927 293 c15 -92 11 -88 98 -88 87 0 82 -5 99 88 l7 37 -105 0 -105
0 6 -37z"/>
<path d="M1156 313 c-3 -10 -8 -40 -12 -66 l-6 -48 63 3 64 3 33 63 33 62 -85
0 c-72 0 -85 -3 -90 -17z"/>
<path d="M1534 184 c-18 -14 -18 -15 4 -4 12 6 22 13 22 15 0 8 -5 6 -26 -11z"/>
<path d="M585 174 c22 -17 111 -64 121 -64 3 0 -17 18 -45 40 -28 22 -61 40
-73 40 -23 -1 -23 -1 -3 -16z"/>
<path d="M1390 149 l-45 -41 50 25 c28 14 59 32 70 41 20 15 20 15 -5 15 -15
0 -43 -16 -70 -40z"/>
<path d="M694 161 c16 -18 145 -91 161 -91 4 0 -15 25 -42 54 -44 50 -52 55
-92 55 -43 1 -44 0 -27 -18z"/>
<path d="M818 163 c21 -39 123 -116 136 -102 2 2 -3 28 -12 56 -15 46 -20 53
-43 53 -15 0 -41 3 -59 6 -30 6 -32 6 -22 -13z"/>
<path d="M1166 171 c-35 -5 -40 -10 -56 -54 -28 -74 2 -72 86 5 63 58 60 63
-30 49z"/>
<path d="M1237 124 c-27 -29 -46 -54 -42 -54 16 0 117 56 147 81 l33 28 -45 0
c-42 0 -48 -4 -93 -55z"/>
<path d="M960 158 c0 -7 9 -32 20 -56 17 -38 23 -43 47 -40 28 3 45 26 58 81
l7 27 -66 0 c-46 0 -66 -4 -66 -12z"/>
</g>
</svg>
